# AST/ASF file generated using VICON BodyLanguage
# -----------------------------------------------
:version 1.10
:name VICON
:units
  mass 1.0
  length 0.45
  angle deg
:documentation
   .ast/.asf automatically generated from VICON data using
   VICON BodyBuilder and BodyLanguage model FoxedUp or BRILLIANT.MOD
:root
   order TX TY TZ RX RY RZ
   axis XYZ
   position 0 0 0  
   orientation 0 0 0 
:bonedata
  begin
     id 1 
     name lhipjoint
     direction 0.567149 -0.783011 0.255413 
     length 2.28399 
     axis 0 0 0  XYZ
  end
  begin
     id 2 
     name lfemur
     direction 0.34202 -0.939693 0  
     length 7.34031  
     axis 0 0 20  XYZ
    dof rx ry rz
    limits (-160.0 20.0)
           (-70.0 70.0)
           (-60.0 70.0)
  end
  begin
     id 3 
     name ltibia
     direction 0.34202 -0.939693 0   
     length 6.9833   
     axis 0 0 20   XYZ
    dof rx
    limits (-10.0 170.0)
  end
  begin
     id 4 
     name lfoot
     direction 0.136498 -0.375025 0.91691   
     length 2.33665   
     axis -90 7.62852e-016 20   XYZ
    dof rx rz
    limits (-45.0 90.0)
           (-70.0 20.0)
  end
  begin
     id 5 
     name ltoes
     direction 1.5367e-011 -4.21617e-011 1   
     length 1.15039   
     axis -90 7.62852e-016 20   XYZ
    dof rx
    limits (-90.0 20.0)
  end
  begin
     id 6 
     name rhipjoint
     direction -0.602854 -0.758518 0.247423   
     length 2.35775  
     axis 0 0 0  XYZ 
  end
  begin
     id 7 
     name rfemur
     direction -0.34202 -0.939693 0   
     length 7.43932   
     axis 0 0 -20   XYZ
    dof rx ry rz
    limits (-160.0 20.0)
           (-70.0 70.0)
           (-70.0 60.0)
  end
  begin
     id 8 
     name rtibia
     direction -0.34202 -0.939693 0   
     length 7.11893   
     axis 0 0 -20   XYZ
    dof rx
    limits (-10.0 170.0)
 end
 begin
     id 9 
     name rfoot
     direction -0.131771 -0.362037 0.922803   
     length 2.53019  
     axis -90 -7.62852e-016 -20   XYZ
    dof rx rz
    limits (-45.0 90.0)
           (-20.0 70.0)
  end
  begin
     id 10 
     name rtoes
     direction -1.53733e-011 -4.21932e-011 1   
     length 1.24596   
     axis -90 -7.62852e-016 -20   XYZ
    dof rx
    limits (-90.0 20.0)
  end
  begin
     id 11 
     name lowerback
     direction 0.0235427 0.999023 -0.0374125   
     length 2.21768   
     axis 0 0 0   XYZ
    dof rx ry rz
    limits (-20.0 45.0)
           (-30.0 30.0)
           (-30.0 30.0)
  end
  begin
     id 12 
     name upperback
     direction 0.0302156 0.996818 -0.073759   
     length 2.20352   
     axis 0 0 0   XYZ
    dof rx ry rz
    limits (-20.0 45.0)
           (-30.0 30.0)
           (-30.0 30.0)
  end
  begin
     id 13 
     name thorax
     direction 0.0187169 0.998235 -0.0563532   
     length 2.22103   
     axis 0 0 0   XYZ
    dof rx ry rz
    limits (-20.0 45.0)
           (-30.0 30.0)
           (-30.0 30.0)
  end
  begin
     id 14 
     name lowerneck
     direction -0.119528 0.987423 0.103481   
     length 1.72948   
     axis 0 0 0   XYZ
    dof rx ry rz
    limits (-20.0 45.0)
           (-30.0 30.0)
           (-30.0 30.0)
  end
  begin
     id 15 
     name upperneck
     direction 0.248049 0.963095 -0.104496   
     length 1.74979   
     axis 0 0 0   XYZ
    dof rx ry rz
    limits (-20.0 45.0)
           (-30.0 30.0)
           (-30.0 30.0)
  end
  begin
     id 16
     name head
     direction 0.0903589 0.994284 -0.056876  
     length 1.78268  
     axis 0 0 0   XYZ
    dof rx ry rz
    limits (-20.0 45.0)
           (-30.0 30.0)
           (-30.0 30.0)
  end
  begin
     id 17 
     name lclavicle
     direction 0.946008 0.242039 -0.215608  
     length 3.80783  
     axis 0 0 0   XYZ
    dof ry rz
    limits (-20.0 10.0)
           (0.0 20.0)
  end
  begin
     id 18 
     name lhumerus
     direction 1 -4.48991e-011 -2.25695e-027   
     length 4.83125   
     axis 180 -30 -90   XYZ
    dof rx ry rz
    limits (-60.0 90.0)
           (-90.0 90.0)
           (-90.0 90.0)
  end
  begin
     id 19
     name lradius
     direction 0.999991 0.00366712 -0.00211721   
     length 3.00391   
     axis 180 -30 -90   XYZ
    dof rx
    limits (-10.0 170.0)
  end
  begin
     id 20
     name lwrist
     direction 0.999991 0.00393016 -0.00141978   
     length 1.50195   
     axis -1.00488e-014 90 90   XYZ
    dof ry
    limits (-180.0 0.0)
 end
  begin
     id 21 
     name lhand
     direction 1 -4.49123e-011 2.72098e-026   
     length 1.2717   
     axis -1.73687e-014 90 90   XYZ
    dof rx rz
    limits (-90.0 90.0)
           (-45.0 45.0)
  end
  begin
     id 22 
     name lfingers
     direction 1 -4.48678e-011 5.4479e-026   
     length 1.02528   
     axis -3.47372e-014 90 90   XYZ
    dof rx
    limits (0.0 90.0)
  end
  begin
     id 23
     name lthumb
     direction 0.707107 -6.34851e-011 0.707107   
     length 1.4721   
     axis -90 45 -1.62303e-014   XYZ
    dof rx rz
    limits (-45.0 45.0)
           (-45.0 45.0)
  end
  begin
     id 24 
     name rclavicle
     direction -0.981723 0.189447 -0.0181673   
     length 3.74989  
     axis 0 0 0   XYZ 
    dof ry rz
    limits (-10.0 20.0)
           (-20.0 0.0)
  end
  begin
     id 25 
     name rhumerus
     direction -1 -4.48985e-011 2.38206e-027  
     length 4.61118   
     axis 180 30 90   XYZ
    dof rx ry rz
    limits (-90.0 60.0)
           (-90.0 90.0)
           (-90.0 90.0)
  end
  begin
     id 26 
     name rradius
     direction -1 -4.48977e-011 7.41019e-027   
     length 2.91491   
     axis 180 30 90   XYZ
    dof rx
    limits (-10.0 170.0)
  end
  begin
     id 27 
     name rwrist
     direction -1 -4.48549e-011 1.3624e-026   
     length 1.45745   
     axis -1.00488e-014 -90 -90   XYZ
    dof ry
    limits (-180.0 0.0)
  end
  begin
     id 28
     name rhand
     direction -1 -4.49107e-011 2.72109e-026   
     length 1.30769   
     axis -1.73687e-014 -90 -90   XYZ
    dof rx rz
    limits (-90.0 90.0)
           (-45.0 45.0)
  end
  begin
     id 29
     name rfingers
     direction -1 -4.48919e-011 5.44468e-026   
     length 1.05429   
     axis -3.47372e-014 -90 -90   XYZ
    dof rx
    limits (0.0 90.0)
  end
  begin
     id 30
     name rthumb
     direction -0.707107 -6.35315e-011 0.707107   
     length 1.51376   
     axis -90 -45 1.62303e-014   XYZ
    dof rx rz
    limits (-45.0 45.0)
           (-45.0 45.0)
  end
:hierarchy
  begin
    root lhipjoint rhipjoint lowerback
    lhipjoint lfemur
    lfemur ltibia
    ltibia lfoot
    lfoot ltoes
    rhipjoint rfemur
    rfemur rtibia
    rtibia rfoot
    rfoot rtoes
    lowerback upperback
    upperback thorax
    thorax lowerneck lclavicle rclavicle
    lowerneck upperneck
    upperneck head
    lclavicle lhumerus
    lhumerus lradius
    lradius lwrist
    lwrist lhand lthumb
    lhand lfingers
    rclavicle rhumerus
    rhumerus rradius
    rradius rwrist
    rwrist rhand rthumb
    rhand rfingers
  end

#!OML:ASF X:\für Bonn\!DataBase\2005_08_11_Bastian_Final\c3d\Bastian.ASF
:FULLY-SPECIFIED
:DEGREES
1
root 0.242325 17.4336 2.12685 173.251 -4.92593 -176.329
lowerback 19.7507 -1.96261 4.94677
upperback 9.4133 -3.53776 -0.494218
thorax -1.10879 -2.36345 -2.59231
lowerneck -13.3643 -6.4587 0.860143
upperneck -7.94645 -7.16698 11.4781
head 0.162342 -2.89089 3.25387
rclavicle 8.54774e-015 2.38542e-015
rhumerus -33.2632 29.869 -81.2465
rradius 25.8989
rwrist -61.7324
rhand -50.6625 -18.6759
rfingers 7.12502
rthumb -23.2248 -47.2955
lclavicle 8.54774e-015 2.38542e-015
lhumerus -396.545 -41.4488 442.326
lradius 22.2484
lwrist 48.7614
lhand -43.2317 23.0985
lfingers 7.12502
lthumb -16.0815 52.4512
rfemur -2.02413 -1.4626 23.3286
rtibia 34.9445
rfoot -18.2679 -9.20882
rtoes -8.28272
lfemur 1.04041 5.69358 -14.8318
ltibia 28.4375
lfoot -14.3325 -8.51425
ltoes -15.7798
2
root 0.24174 17.4177 2.20554 173.256 -4.51469 -176.333
lowerback 20.5861 -1.75846 4.9714
upperback 9.63404 -3.339 -0.505836
thorax -1.2714 -2.30942 -2.63034
lowerneck -14.9541 -6.65901 1.13663
upperneck -8.29377 -7.32962 11.5317
head 0.308277 -2.86364 3.18505
rclavicle 7.95139e-016 -2.38542e-015
rhumerus -29.8184 31.6073 -83.3258
rradius 25.8916
rwrist -61.6063
rhand -50.8344 -19.0457
rfingers 7.12502
rthumb -23.3897 -47.6444
lclavicle 7.95139e-016 -2.38542e-015
lhumerus -393.116 -42.1872 444.326
lradius 22.627
lwrist 48.7462
lhand -44.0486 24.0634
lfingers 7.12502
lthumb -16.8679 53.3509
rfemur -2.3436 -1.40405 23.2808
rtibia 34.9643
rfoot -18.2825 -8.84534
rtoes -8.16638
lfemur 0.800019 6.08624 -14.8501
ltibia 28.5297
lfoot -14.4594 -8.39184
ltoes -15.8835
3
root 0.240153 17.4077 2.28141 173.249 -4.09727 -176.308
lowerback 21.2872 -1.55386 5.02775
upperback 9.86522 -3.14075 -0.514225
thorax -1.35194 -2.25253 -2.69294
lowerneck -16.3941 -6.83306 1.43409
upperneck -8.60116 -7.47168 11.5492
head 0.435409 -2.83318 3.10519
rclavicle -1.41137e-014 -1.15295e-014
rhumerus -26.1367 33.6316 -84.867
rradius 26.2189
rwrist -61.7051
rhand -51.1761 -19.5399
rfingers 7.12502
rthumb -23.7175 -48.0965
lclavicle -1.41137e-014 -1.15295e-014
lhumerus -389.644 -43.8175 446.238
lradius 23.2103
lwrist 49.7833
lhand -44.9855 24.8051
lfingers 7.12502
lthumb -17.7697 54.0132
rfemur -2.63392 -1.26209 23.2816
rtibia 34.9532
rfoot -18.2068 -8.5234
rtoes -8.01401
lfemur 0.579976 6.40265 -14.8457
ltibia 28.614
lfoot -14.5058 -8.22052
ltoes -16.0408
4
root 0.238963 17.4034 2.3535 173.211 -3.67163 -176.331
lowerback 21.9045 -1.32356 5.0311
upperback 10.0955 -2.92193 -0.539948
thorax -1.38637 -2.18467 -2.75529
lowerneck -17.7119 -6.96075 1.78238
upperneck -8.80048 -7.59004 11.4949
head 0.568043 -2.80055 2.99537
rclavicle -1.66979e-014 1.47101e-014
rhumerus -22.0745 35.6705 -85.7995
rradius 26.7223
rwrist -62.0074
rhand -51.4882 -19.8423
rfingers 7.12502
rthumb -24.0168 -48.3598
lclavicle -1.66979e-014 1.47101e-014
lhumerus -385.854 -45.6076 447.623
lradius 23.869
lwrist 50.888
lhand -45.7094 25.1545
lfingers 7.12502
lthumb -18.4661 54.298
rfemur -2.86518 -1.11 23.2347
rtibia 34.921
rfoot -18.0814 -8.19774
rtoes -7.78616
lfemur 0.413736 6.68889 -14.8858
ltibia 28.6756
lfoot -14.4634 -8.0166
ltoes -16.1297
5
root 0.237445 17.4048 2.42026 173.15 -3.24468 -176.306
lowerback 22.4063 -1.08882 5.08829
upperback 10.2972 -2.6798 -0.556301
thorax -1.39088 -2.09851 -2.84988
lowerneck -18.7527 -7.06215 2.09672
upperneck -8.95158 -7.69206 11.4361
head 0.670417 -2.77768 2.89654
rclavicle -1.72943e-014 2.14687e-014
rhumerus -17.6304 37.474 -86.0965
rradius 27.2632
rwrist -62.327
rhand -51.5912 -19.9697
rfingers 7.12502
rthumb -24.1156 -48.4741
lclavicle -1.72943e-014 2.14687e-014
lhumerus -381.688 -47.1463 448.461
lradius 24.4033
lwrist 51.4823
lhand -46.0163 25.1118
lfingers 7.12502
lthumb -18.7614 54.227
rfemur -3.05102 -0.90178 23.2534
rtibia 34.8672
rfoot -17.9183 -7.89382
rtoes -7.44595
lfemur 0.304787 6.83842 -14.8886
ltibia 28.7028
lfoot -14.358 -7.73853
ltoes -16.0586
6
root 0.236362 17.4104 2.48098 173.076 -2.84168 -176.301
lowerback 22.7584 -0.860457 5.1243
upperback 10.4749 -2.44278 -0.593434
thorax -1.34734 -2.00791 -2.96027
lowerneck -19.5012 -7.1377 2.459
upperneck -9.07951 -7.79325 11.2912
head 0.724255 -2.78077 2.76515
rclavicle 1.13307e-014 1.98785e-015
rhumerus -12.9404 39.1135 -85.7904
rradius 27.9834
rwrist -62.8691
rhand -51.4428 -19.6944
rfingers 7.12502
rthumb -23.9733 -48.2176
lclavicle 1.13307e-014 1.98785e-015
lhumerus -377.341 -48.4899 448.88
lradius 24.9342
lwrist 51.518
lhand -45.9063 24.8378
lfingers 7.12502
lthumb -18.6555 53.9633
rfemur -3.1708 -0.655687 23.2597
rtibia 34.7826
rfoot -17.7504 -7.61801
rtoes -6.98877
lfemur 0.237729 6.89926 -14.913
ltibia 28.6849
lfoot -14.1571 -7.42548
ltoes -15.8133
7
root 0.23652 17.4196 2.5339 172.97 -2.47273 -176.296
lowerback 22.9475 -0.651007 5.13464
upperback 10.6429 -2.23157 -0.615546
thorax -1.23486 -1.92487 -3.03999
lowerneck -20.0015 -7.19528 2.66375
upperneck -9.16699 -7.86298 11.22
head 0.762387 -2.78131 2.69282
rclavicle -8.15017e-015 -1.51076e-014
rhumerus -7.98305 40.9198 -84.8282
rradius 28.8961
rwrist -63.9999
rhand -51.197 -19.0666
rfingers 7.12502
rthumb -23.7375 -47.6206
lclavicle -8.15017e-015 -1.51076e-014
lhumerus -372.916 -50.3088 449.046
lradius 25.4196
lwrist 51.5304
lhand -45.5184 24.5324
lfingers 7.12502
lthumb -18.2825 53.6932
rfemur -3.2042 -0.426412 23.2777
rtibia 34.6608
rfoot -17.5395 -7.3959
rtoes -6.7723
lfemur 0.246942 6.91531 -14.9254
ltibia 28.617
lfoot -13.8942 -7.12246
ltoes -15.5098
8
root 0.237152 17.4328 2.57753 172.846 -2.13937 -176.273
lowerback 22.9534 -0.476561 5.13679
upperback 10.7722 -2.05269 -0.632271
thorax -1.07829 -1.84827 -3.10602
lowerneck -20.2088 -7.22779 2.78584
upperneck -9.17815 -7.91805 11.1661
head 0.784161 -2.79663 2.64582
rclavicle -3.97569e-016 -1.70955e-014
rhumerus -2.68086 43.1772 -83.0922
rradius 30.0761
rwrist -66.0402
rhand -51.0553 -18.29
rfingers 7.12502
rthumb -23.6016 -46.8615
lclavicle -3.97569e-016 -1.70955e-014
lhumerus -368.549 -52.2339 448.794
lradius 26.2356
lwrist 51.2892
lhand -45.0641 24.3088
lfingers 7.12502
lthumb -17.8453 53.51
rfemur -3.15482 -0.115847 23.3375
rtibia 34.4901
rfoot -17.3156 -7.26433
rtoes -6.36419
lfemur 0.320971 6.86905 -14.9154
ltibia 28.4956
lfoot -13.5873 -6.807
ltoes -15.2364
9
root 0.24001 17.4508 2.61114 172.688 -1.87789 -176.24
lowerback 22.8172 -0.329839 5.12941
upperback 10.8651 -1.89615 -0.646819
thorax -0.894811 -1.77413 -3.1613
lowerneck -20.1744 -7.24554 2.90979
upperneck -9.10753 -7.99109 11.0366
head 0.791278 -2.8456 2.57444
rclavicle 1.19271e-014 9.54166e-015
rhumerus 3.03882 45.2538 -80.5863
rradius 31.3509
rwrist -68.3992
rhand -51.0333 -17.2445
rfingers 7.12502
rthumb -23.5806 -45.8188
lclavicle 1.19271e-014 9.54166e-015
lhumerus -363.986 -54.8985 447.843
lradius 27.3919
lwrist 51.4659
lhand -44.7625 24.0854
lfingers 7.12502
lthumb -17.5551 53.3128
rfemur -3.02645 0.141883 23.418
rtibia 34.2919
rfoot -17.0755 -7.19745
rtoes -6.1886
lfemur 0.486096 6.8246 -14.8678
ltibia 28.305
lfoot -13.2604 -6.54865
ltoes -15.2654
10
root 0.243505 17.471 2.63435 172.535 -1.67536 -176.234
lowerback 22.5436 -0.21553 5.07262
upperback 10.8783 -1.76115 -0.662436
thorax -0.734988 -1.69999 -3.18475
lowerneck -19.8588 -7.23875 2.94584
upperneck -8.92587 -8.0548 10.9232
head 0.796536 -2.91119 2.52802
rclavicle 3.18055e-015 -1.98785e-015
rhumerus 9.04529 46.9331 -77.4706
rradius 32.6553
rwrist -70.7555
rhand -51.1878 -15.8963
rfingers 7.12502
rthumb -23.7287 -44.4514
lclavicle 3.18055e-015 -1.98785e-015
lhumerus -358.941 -57.6625 445.97
lradius 28.7181
lwrist 51.5964
lhand -44.6027 23.8222
lfingers 7.12502
lthumb -17.4013 53.0632
rfemur -2.84858 0.44026 23.4805
rtibia 34.0572
rfoot -16.8006 -7.22006
rtoes -6.04878
lfemur 0.695821 6.71577 -14.8575
ltibia 28.0654
lfoot -12.9126 -6.29223
ltoes -15.3141
11
root 0.248131 17.4921 2.64732 172.36 -1.48058 -176.207
lowerback 22.1855 -0.119895 5.00864
upperback 10.8131 -1.62332 -0.667824
thorax -0.620152 -1.6153 -3.19232
lowerneck -19.5838 -7.24329 2.84462
upperneck -8.28257 -8.22403 10.8146
head 0.977648 -3.03159 2.4925
rclavicle 8.15017e-015 2.38542e-014
rhumerus 14.8491 47.326 -74.8098
rradius 33.376
rwrist -71.7918
rhand -51.2213 -14.2312
rfingers 7.12502
rthumb -23.7609 -42.7821
lclavicle 8.15017e-015 2.38542e-014
lhumerus -353.184 -59.7409 443.356
lradius 29.6173
lwrist 51.1276
lhand -44.4721 23.1316
lfingers 7.12502
lthumb -17.2756 52.3837
rfemur -2.59791 0.69675 23.5711
rtibia 33.8043
rfoot -16.507 -7.23641
rtoes -5.99823
lfemur 0.9853 6.5132 -14.8276
ltibia 27.794
lfoot -12.5882 -5.96042
ltoes -15.4166
12
root 0.252713 17.5141 2.65051 172.15 -1.30984 -176.151
lowerback 21.7411 -0.0419367 4.99632
upperback 10.7129 -1.48502 -0.685484
thorax -0.500768 -1.52164 -3.24225
lowerneck -19.5699 -7.28529 2.56541
upperneck -6.99892 -8.548 10.8173
head 1.44497 -3.20819 2.50106
rclavicle 1.47101e-014 1.66979e-014
rhumerus 19.9804 46.4349 -73.2054
rradius 33.5069
rwrist -71.1057
rhand -50.9055 -12.4932
rfingers 7.12502
rthumb -23.458 -41.0832
lclavicle 1.47101e-014 1.66979e-014
lhumerus -346.926 -61.236 440.075
lradius 30.4496
lwrist 50.3963
lhand -44.4998 22.0981
lfingers 7.12502
lthumb -17.3023 51.3479
rfemur -2.26044 0.994945 23.7051
rtibia 33.5384
rfoot -16.2289 -7.32024
rtoes -5.98399
lfemur 1.34257 6.32395 -14.7514
ltibia 27.5196
lfoot -12.2916 -5.67346
ltoes -15.5869
